<svg id="Layer_1" data-name="Layer 1" xmlns="http://www.w3.org/2000/svg" viewBox="0 0 84.52 92.93"><defs><style>.cls-1{fill:#ec5d57;}</style></defs><title>icon_svg</title><path class="cls-1" d="M106.76,75.83h-3V51.42L80.9,25.85H41.13A11.1,11.1,0,0,0,30,36.94v70.74a11.1,11.1,0,0,0,11.09,11.09H92.69a11.11,11.11,0,0,0,11.09-11.09v-1.54h3a7.81,7.81,0,0,0,7.8-7.8V83.63A7.81,7.81,0,0,0,106.76,75.83Zm-25-44.56L98.93,50.49H81.74Zm19,76.41a8.1,8.1,0,0,1-8.09,8.09H41.13A8.1,8.1,0,0,1,33,107.69V36.94a8.1,8.1,0,0,1,8.09-8.09h37.6V53.49h22V75.83H67.89a7.81,7.81,0,0,0-7.8,7.8V98.34a7.81,7.81,0,0,0,7.8,7.8h32.89Zm10.78-9.35a4.81,4.81,0,0,1-4.8,4.8H67.89a4.81,4.81,0,0,1-4.8-4.8V83.63a4.81,4.81,0,0,1,4.8-4.8h38.86a4.81,4.81,0,0,1,4.8,4.8V98.34Z" transform="translate(-30.04 -25.85)"/><path class="cls-1" d="M76.28,90.75c-2.17-.49-4.33-.74-4.33-2.4S73.46,86,75,86c1.85,0,3.14.83,3.35,2.76H80c-.11-3-2.21-4.27-5-4.27-2.46,0-4.9,1.21-4.9,4,0,2.48,2.17,3.1,4.33,3.57s4.31.79,4.31,2.65S77,97.16,75.37,97.16c-2,0-3.93-1-3.93-3.25h-1.7c0,3.29,2.55,4.76,5.58,4.76,2.46,0,5.28-1.15,5.28-4C80.59,92,78.44,91.24,76.28,90.75Z" transform="translate(-30.04 -25.85)"/><polygon class="cls-1" points="57.07 70.71 57.03 70.71 53.18 59 51.23 59 56 72.5 58.04 72.5 62.84 59 60.97 59 57.07 70.71"/><path class="cls-1" d="M100.1,92.76h4.31a4.07,4.07,0,0,1-4.33,4.4c-3,0-4.63-2.57-4.63-5.39S96.81,86,100.08,86c2,0,3.65.93,4,3h1.8c-.51-3.16-2.86-4.48-5.81-4.48-4.27,0-6.43,3.4-6.43,7.34,0,3.52,2.4,6.81,6.43,6.81a5.29,5.29,0,0,0,4.33-2l.47,1.68H106V91.25H100.1v1.51Z" transform="translate(-30.04 -25.85)"/></svg>