<svg id="Layer_1" data-name="Layer 1" xmlns="http://www.w3.org/2000/svg" viewBox="0 0 65.5 59.5"><defs><style>.cls-1{fill:#ec5d57;}</style></defs><title>icon_portfolio</title><path class="cls-1" d="M48.7,22.4a4.9,4.9,0,1,0-4.9-4.9A5,5,0,0,0,48.7,22.4Zm0-8.3a3.4,3.4,0,1,1-3.4,3.4A3.5,3.5,0,0,1,48.7,14.1Z" transform="translate(0 0)"/><path class="cls-1" d="M59,28.3a4.9,4.9,0,0,0-.8-2.5,3.94,3.94,0,0,0-2.3-1.9l-3.6-1.3-3.2,5.7h-.8l-3-5.7-3.6,1.3a4.35,4.35,0,0,0-2.3,1.9,6.09,6.09,0,0,0-.8,2.5,42.21,42.21,0,0,0-.5,5.6v.8H59.5v-.8C59.3,31,59,28.7,59,28.3ZM39.6,33.2c.1-2.6.4-4.7.4-4.7v-.1a3.22,3.22,0,0,1,.6-1.8,3.18,3.18,0,0,1,1.5-1.3l2.4-.9,2.9,5.4H50l2.9-5.4,2.4.9a2.43,2.43,0,0,1,1.5,1.3,3.22,3.22,0,0,1,.6,1.8v.1s.3,2.1.4,4.7Z" transform="translate(0 0)"/><path class="cls-1" d="M34.5,12.5H5.1V34.7H34.5Zm-16,11.1L6.6,32.4V14.8ZM8.1,14H31.5L19.8,22.7ZM19.8,24.5l11.7,8.7H8.1Zm1.2-.9,11.9-8.8V32.5Z" transform="translate(0 0)"/><path class="cls-1" d="M61.9,0H3.7A3.67,3.67,0,0,0,0,3.6V59.5H65.5V3.7A3.61,3.61,0,0,0,62,0ZM3.7,1.5H61.9A2.14,2.14,0,0,1,64,3.68V7.8H1.6V3.7A2.14,2.14,0,0,1,3.68,1.5ZM1.6,58.1V9.2H64.1V58H1.6Z" transform="translate(0 0)"/><rect class="cls-1" x="49.6" y="3.9" width="1.5" height="1.5"/><rect class="cls-1" x="53.4" y="3.9" width="1.5" height="1.5"/><rect class="cls-1" x="57.2" y="3.9" width="1.5" height="1.5"/><rect class="cls-1" x="6.4" y="3.9" width="38.5" height="1.5"/><path class="cls-1" d="M5.1,54.7H21.6V38.4H5.1ZM6.6,39.9H20.1V53.2H6.6Z" transform="translate(0 0)"/><path class="cls-1" d="M24,54.7H40.5V38.4H24Zm1.5-14.8H39V53.2H25.5Z" transform="translate(0 0)"/><path class="cls-1" d="M43,54.7H59.5V38.4H43Zm1.5-14.8H58V53.2H44.5Z" transform="translate(0 0)"/></svg>